<svg width="30" height="30" viewBox="0 0 30 30" fill="none" xmlns="http://www.w3.org/2000/svg">
<path d="M27.99 7.47C26.6811 5.20159 24.7973 3.31831 22.5285 2.01C20.229 0.6705 17.7195 0 15 0C12.2805 0 9.771 0.6705 7.47 2.01C5.1705 3.3495 3.3495 5.1705 2.01 7.47C0.6705 9.7695 0 12.2805 0 15C0 17.7195 0.669 20.2305 2.01 22.53C3.31848 24.7988 5.20238 26.6821 7.4715 27.99C9.771 29.3295 12.2805 30 15 30C17.7195 30 20.229 29.3295 22.53 27.99C24.7988 26.6817 26.6826 24.7984 27.9915 22.53C29.331 20.2305 30 17.7195 30 15C30 12.2805 29.331 9.7695 27.99 7.47ZM15 2.49C18 2.49 20.658 3.45 22.98 5.3685C21.6 7.1295 19.551 8.5785 16.83 9.7185C15.327 6.999 13.698 4.728 11.9385 2.9085C12.9357 2.63277 13.9654 2.49202 15 2.49ZM5.265 7.2C6.36186 5.80714 7.7497 4.67066 9.3315 3.87C11.1495 5.6715 12.819 7.92 14.3415 10.62C11.3415 11.52 8.1705 11.97 4.83 11.97C3.9705 11.97 3.321 11.9505 2.88 11.91C3.33971 10.1916 4.15192 8.58758 5.265 7.2ZM2.49 15C2.49 14.919 2.4945 14.82 2.505 14.7C2.5155 14.58 2.52 14.481 2.52 14.4C2.901 14.421 3.4815 14.43 4.2615 14.43C8.2605 14.43 11.9805 13.8795 15.42 12.78C15.7005 13.3395 15.9915 13.9695 16.29 14.67C14.31 15.1095 12.279 16.179 10.1985 17.88C8.118 19.581 6.6 21.3705 5.64 23.25C3.54 20.8695 2.49 18.12 2.49 15ZM15 27.51C12.159 27.51 9.609 26.6295 7.3485 24.8715C8.25 23.091 9.6345 21.3885 11.505 19.77C13.374 18.15 15.2295 17.1405 17.07 16.74C18.231 19.9485 19.0162 23.2807 19.41 26.67C18.0043 27.2193 16.5092 27.5041 15 27.51ZM25.62 21.57C24.6382 23.1518 23.3161 24.4949 21.75 25.5015C21.39 22.3815 20.7 19.341 19.6815 16.38C21.0795 16.281 22.329 16.23 23.4315 16.23C24.63 16.23 25.9605 16.281 27.42 16.38C27.2242 18.2248 26.6084 20.0001 25.62 21.57ZM23.76 14.07C22.02 14.07 20.4105 14.1405 18.93 14.28C18.6164 13.4592 18.2762 12.6487 17.91 11.85C21.009 10.491 23.208 8.841 24.5085 6.9C26.3085 9.021 27.2895 11.4405 27.4485 14.16C26.2305 14.1 25.0005 14.07 23.76 14.07Z" fill="black"/>
</svg>
