<svg width="28" height="28" viewBox="0 0 28 28" fill="none" xmlns="http://www.w3.org/2000/svg">
<path d="M26 0.5H2C1.60218 0.5 1.22064 0.658035 0.93934 0.93934C0.658035 1.22064 0.5 1.60218 0.5 2V26C0.5 26.3978 0.658035 26.7794 0.93934 27.0607C1.22064 27.342 1.60218 27.5 2 27.5H14.9225V17.06H11.4155V12.9725H14.9225V9.9725C14.9225 6.485 17.0525 4.5845 20.1725 4.5845C21.221 4.5815 22.271 4.6355 23.315 4.745V8.375H21.1625C19.4705 8.375 19.1405 9.182 19.1405 10.3625V12.965H23.186L22.661 17.0525H19.139V27.5H26C26.3978 27.5 26.7794 27.342 27.0607 27.0607C27.342 26.7794 27.5 26.3978 27.5 26V2C27.5 1.60218 27.342 1.22064 27.0607 0.93934C26.7794 0.658035 26.3978 0.5 26 0.5Z" fill="black"/>
</svg>
