<svg width="31" height="20" viewBox="0 0 31 20" fill="none" xmlns="http://www.w3.org/2000/svg">
<path d="M8.7045 0.596436C9.588 0.596436 10.383 0.672936 11.112 0.828936C11.8365 0.983436 12.4545 1.23844 12.9765 1.59094C13.491 1.94344 13.893 2.41144 14.1825 2.99944C14.463 3.57994 14.6025 4.30594 14.6025 5.16394C14.6025 6.09394 14.3925 6.87093 13.971 7.49044C13.5465 8.11143 12.921 8.61994 12.087 9.01294C13.2225 9.34144 14.064 9.91594 14.622 10.7319C15.183 11.5554 15.4575 12.5409 15.4575 13.6959C15.4575 14.6334 15.279 15.4389 14.9205 16.1154C14.575 16.7819 14.0738 17.3551 13.4595 17.7864C12.8232 18.2296 12.1124 18.5547 11.361 18.7464C10.5732 18.9532 9.76197 19.0571 8.9475 19.0554H0V0.596436H8.7045ZM8.178 8.05444C8.898 8.05444 9.495 7.88344 9.966 7.53694C10.434 7.19494 10.6605 6.63094 10.6605 5.85844C10.6605 5.42944 10.584 5.07544 10.434 4.79794C10.2879 4.53096 10.0716 4.30898 9.8085 4.15594C9.53315 3.99263 9.22925 3.88318 8.913 3.83344C8.56829 3.76915 8.21814 3.7385 7.8675 3.74194H4.065V8.05444H8.178ZM8.4045 15.9129C8.805 15.9129 9.186 15.8784 9.5445 15.7974C9.906 15.7194 10.227 15.5934 10.5 15.4059C10.773 15.2259 10.998 14.9814 11.16 14.6694C11.3235 14.3604 11.403 13.9569 11.403 13.4724C11.403 12.5214 11.1345 11.8449 10.6035 11.4354C10.071 11.0304 9.357 10.8294 8.4825 10.8294H4.065V15.9144H8.4045V15.9129ZM21.252 15.8514C21.8025 16.3884 22.596 16.6584 23.628 16.6584C24.3675 16.6584 25.0065 16.4709 25.545 16.0989C26.076 15.7254 26.4 15.3264 26.5245 14.9139H29.757C29.238 16.5219 28.4505 17.6709 27.3735 18.3624C26.31 19.0569 25.0155 19.4019 23.5035 19.4019C22.4505 19.4019 21.5025 19.2324 20.6535 18.8964C19.8386 18.5791 19.1022 18.0888 18.495 17.4594C17.8978 16.8154 17.4362 16.0579 17.1375 15.2319C16.8092 14.3186 16.6466 13.3539 16.6575 12.3834C16.6575 11.3844 16.824 10.4499 17.151 9.58744C17.4614 8.75371 17.9381 7.99178 18.552 7.34794C19.1595 6.71794 19.8795 6.22144 20.718 5.85694C21.5997 5.4861 22.5485 5.30124 23.505 5.31394C24.636 5.31394 25.6245 5.53294 26.4735 5.97394C27.2968 6.3949 28.0107 7.00196 28.5585 7.74694C29.103 8.48644 29.4915 9.33394 29.733 10.2834C29.9745 11.2314 30.0585 12.2214 29.9895 13.2579H20.343C20.3445 14.3139 20.7 15.3144 21.252 15.8514ZM25.47 8.82994C25.0335 8.34694 24.2955 8.08594 23.3925 8.08594C22.806 8.08594 22.3215 8.18344 21.9315 8.38444C21.5749 8.56455 21.2585 8.81509 21.0015 9.12094C20.7758 9.39861 20.6084 9.71902 20.5095 10.0629C20.423 10.3497 20.3672 10.6449 20.343 10.9434H26.316C26.229 10.0074 25.908 9.31594 25.47 8.82994ZM19.593 1.83544H27.0765V3.65794H19.593V1.83544Z" fill="black"/>
</svg>
