<svg width="26" height="29" viewBox="0 0 26 29" fill="none" xmlns="http://www.w3.org/2000/svg">
<path d="M10.3895 12.4565C9.57651 12.4565 8.93601 13.169 8.93601 14.039C8.93601 14.906 9.59151 15.6215 10.3895 15.6215C11.201 15.6215 11.8415 14.906 11.8415 14.039C11.858 13.1675 11.201 12.4565 10.3895 12.4565ZM15.5915 12.4565C14.7785 12.4565 14.138 13.169 14.138 14.039C14.138 14.906 14.7935 15.6215 15.5915 15.6215C16.403 15.6215 17.0435 14.906 17.0435 14.039C17.042 13.1675 16.403 12.4565 15.5915 12.4565Z" fill="black"/>
<path d="M22.517 0.5H3.42051C3.036 0.500984 2.65545 0.577693 2.30058 0.725748C1.94572 0.873804 1.62349 1.09031 1.35229 1.36289C1.0811 1.63548 0.866253 1.95881 0.720018 2.31443C0.573782 2.67005 0.499023 3.05099 0.50001 3.4355V22.7015C0.50001 24.326 1.81101 25.637 3.42051 25.637H19.58L18.8225 22.9985L20.648 24.695L22.3715 26.291L25.4375 29V3.4355C25.4385 3.05099 25.3637 2.67005 25.2175 2.31443C25.0713 1.95881 24.8564 1.63548 24.5852 1.36289C24.314 1.09031 23.9918 0.873804 23.6369 0.725748C23.2821 0.577693 22.9015 0.500984 22.517 0.5ZM17.015 19.1105C17.015 19.1105 16.502 18.4985 16.076 17.954C17.942 17.426 18.6545 16.259 18.6545 16.259C18.0695 16.643 17.5145 16.916 17.015 17.102C15.1965 17.8631 13.194 18.0707 11.258 17.699C10.5427 17.5585 9.84173 17.3526 9.16401 17.084C8.80658 16.9482 8.45922 16.7873 8.12451 16.6025C8.08101 16.571 8.03901 16.559 7.99701 16.5305C7.97454 16.5198 7.9546 16.5045 7.93851 16.4855C7.68201 16.3445 7.53951 16.2455 7.53951 16.2455C7.53951 16.2455 8.22351 17.3855 10.034 17.927C9.60651 18.467 9.07851 19.1105 9.07851 19.1105C5.93001 19.01 4.73451 16.9445 4.73451 16.9445C4.73451 12.356 6.78651 8.6375 6.78651 8.6375C8.83851 7.097 10.79 7.1405 10.79 7.1405L10.9325 7.3115C8.36751 8.054 7.18401 9.179 7.18401 9.179C7.18401 9.179 7.49901 9.008 8.02551 8.7665C9.54951 8.0975 10.76 7.9115 11.2595 7.868C11.345 7.8545 11.417 7.8395 11.5025 7.8395C13.9733 7.50653 16.4857 7.9761 18.6695 9.179C18.6695 9.179 17.543 8.111 15.1205 7.37L15.32 7.142C15.32 7.142 17.273 7.0985 19.3235 8.639C19.3235 8.639 21.3755 12.3575 21.3755 16.946C21.3755 16.946 20.165 19.01 17.015 19.1105Z" fill="black"/>
</svg>
