<svg width="28" height="28" viewBox="0 0 28 28" fill="none" xmlns="http://www.w3.org/2000/svg">
<path d="M13.9986 7.06557C12.159 7.06557 10.3948 7.79632 9.09406 9.09708C7.79331 10.3978 7.06255 12.162 7.06255 14.0016C7.06255 15.8411 7.79331 17.6053 9.09406 18.9061C10.3948 20.2068 12.159 20.9376 13.9986 20.9376C15.8381 20.9376 17.6023 20.2068 18.903 18.9061C20.2038 17.6053 20.9346 15.8411 20.9346 14.0016C20.9346 12.162 20.2038 10.3978 18.903 9.09708C17.6023 7.79632 15.8381 7.06557 13.9986 7.06557ZM13.9986 18.5061C12.8035 18.5061 11.6574 18.0313 10.8123 17.1863C9.96729 16.3413 9.49255 15.1951 9.49255 14.0001C9.49255 12.805 9.96729 11.6589 10.8123 10.8138C11.6574 9.96881 12.8035 9.49407 13.9986 9.49407C15.1936 9.49407 16.3397 9.96881 17.1848 10.8138C18.0298 11.6589 18.5046 12.805 18.5046 14.0001C18.5046 15.1951 18.0298 16.3413 17.1848 17.1863C16.3397 18.0313 15.1936 18.5061 13.9986 18.5061Z" fill="black"/>
<path d="M21.2091 8.42757C22.1021 8.42757 22.8261 7.70361 22.8261 6.81057C22.8261 5.91752 22.1021 5.19357 21.2091 5.19357C20.316 5.19357 19.5921 5.91752 19.5921 6.81057C19.5921 7.70361 20.316 8.42757 21.2091 8.42757Z" fill="black"/>
<path d="M26.7996 5.16657C26.4523 4.26984 25.9216 3.45549 25.2416 2.77566C24.5615 2.09582 23.7469 1.56548 22.8501 1.21857C21.8006 0.824604 20.6918 0.61158 19.5711 0.588568C18.1266 0.525568 17.6691 0.507568 14.0061 0.507568C10.3431 0.507568 9.87355 0.507568 8.44105 0.588568C7.32114 0.610403 6.21319 0.823471 5.16505 1.21857C4.26796 1.56507 3.4532 2.09527 2.77305 2.77516C2.09291 3.45505 1.56239 4.2696 1.21555 5.16657C0.821509 6.21599 0.608974 7.32482 0.587052 8.44557C0.522552 9.88857 0.503052 10.3461 0.503052 14.0106C0.503052 17.6736 0.503052 18.1401 0.587052 19.5756C0.609552 20.6976 0.821052 21.8046 1.21555 22.8561C1.56337 23.7527 2.0944 24.5669 2.77471 25.2467C3.45502 25.9265 4.26965 26.4569 5.16655 26.8041C6.2127 27.2139 7.32111 27.4421 8.44405 27.4791C9.88855 27.5421 10.3461 27.5616 14.0091 27.5616C17.6721 27.5616 18.1416 27.5616 19.5741 27.4791C20.6947 27.4563 21.8034 27.2438 22.8531 26.8506C23.7497 26.5029 24.564 25.972 25.244 25.292C25.924 24.612 26.4548 23.7977 26.8026 22.9011C27.1971 21.8511 27.4086 20.7441 27.4311 19.6221C27.4956 18.1791 27.5151 17.7216 27.5151 14.0571C27.5151 10.3926 27.5151 9.92757 27.4311 8.49207C27.4136 7.35548 27.2 6.23044 26.7996 5.16657ZM24.9726 19.4646C24.9629 20.329 24.8051 21.1854 24.5061 21.9966C24.2808 22.5799 23.9359 23.1096 23.4937 23.5516C23.0514 23.9936 22.5215 24.3381 21.9381 24.5631C21.1359 24.8607 20.2886 25.0185 19.4331 25.0296C18.0081 25.0956 17.6061 25.1121 13.9521 25.1121C10.2951 25.1121 9.92155 25.1121 8.46955 25.0296C7.61444 25.0191 6.76754 24.8613 5.96605 24.5631C5.38058 24.3395 4.84855 23.9956 4.40439 23.5535C3.96022 23.1114 3.6138 22.581 3.38755 21.9966C3.09272 21.1941 2.93502 20.3478 2.92105 19.4931C2.85655 18.0681 2.84155 17.6661 2.84155 14.0121C2.84155 10.3566 2.84155 9.98307 2.92105 8.52957C2.93075 7.6656 3.08853 6.8097 3.38755 5.99907C3.84505 4.81557 4.78255 3.88407 5.96605 3.43107C6.76794 3.13428 7.61459 2.97651 8.46955 2.96457C9.89605 2.90007 10.2966 2.88207 13.9521 2.88207C17.6076 2.88207 17.9826 2.88207 19.4331 2.96457C20.2887 2.97486 21.1361 3.13268 21.9381 3.43107C22.5214 3.65648 23.0513 4.00137 23.4935 4.44361C23.9358 4.88586 24.2806 5.41568 24.5061 5.99907C24.8009 6.80149 24.9586 7.64781 24.9726 8.50257C25.0371 9.92907 25.0536 10.3296 25.0536 13.9851C25.0536 17.6391 25.0536 18.0321 24.9891 19.4661H24.9726V19.4646Z" fill="black"/>
</svg>
